<svg xmlns="http://www.w3.org/2000/svg" viewBox="0 0 504.89 374.65"><defs><style>.cls-1{fill:#cea74b;}.cls-2{fill:#951b1e;}.cls-3,.cls-5{fill:#231f20;}.cls-4{fill:none;stroke:#28292d;stroke-miterlimit:10;}.cls-5{font-size:14px;font-family:Cabin-Bold, Cabin;font-weight:700;}</style></defs><g id="Layer_2" data-name="Layer 2"><polygon class="cls-1" points="471.18 322.85 121.25 374.65 0 111.86 504.89 111.86 471.18 322.85"/></g><g id="path"><path class="cls-2" d="M308.76,200.24C288,196.72,118,178.91,97.39,274,75.06,377.26,150,459.8,176.8,499.16l114.37-16.6c-63.5-48.59-110.5-125.45-110.5-125.45S104.32,237.58,291.74,225.57Z" transform="translate(-61.65 -125.29)"/></g><g id="GREASE"><path class="cls-3" d="M195.56,430.53h0Z" transform="translate(-61.65 -125.29)"/><path class="cls-3" d="M214.2,430.49l6.48-1Z" transform="translate(-61.65 -125.29)"/><path class="cls-3" d="M220.82,429.39l4.25-1.05Z" transform="translate(-61.65 -125.29)"/><path class="cls-3" d="M525.17,262c.5-2.82-.29-3.68-3.19-2.47-10.53,4.37-21.19,8.44-31.66,12.94a90,90,0,0,0-10.79,5c-.23,1.15-4.67,31.29-4.9,32.11l-2.38,1.92c-5.07-6.21-11.64-10.37-18.87-13.63-1.37-.51-2.75-1-4.11-1.53-6.76-2.65-9.57-8-7.24-13.69,2.15-5.29,7.91-6.88,14.54-3.66,3,1.48,5.75,3.61,8.68,5.49a36.63,36.63,0,0,1,1-4.52c1.8-5.06,0-8.54-4.12-11.75-14-10.93-35.59-6-43,10.11-6.36,13.75-4.27,27.57,6.39,38.42,5.51,5.6,11.82,10.42,17.6,15.77,12.43,11.53,8.88,27-7.33,32.24-.08.46-5.58-.13-7.76-1.31-9.52-5.17-15.63-13.11-17.4-23.91-2.45-14.94-4.67-29.91-7-44.86-1.16-7.47-2.34-14.94-3.56-22.73-9,1.7-17.09,3.62-23.86,9-6.31,4-10.71,9.53-12,16.81-2.11,12-5.31,48.79-7.23,49.5-6.45,2.36-16.73,4.76-23.49,6.08-2,.4-6.24-.29-6.43-1.82-.84-6.71-1.19-8.49-.75-12.26.24-2,6.62-1.55,9.64-1.4,1.45.08,3.12.49,4.32-.07,1.86-.86,4.24-2.08,4.91-3.74,1.41-3.51,2-7.39,2.67-11.15.56-3.05-1.17-4.11-3.88-3.3-3,.88-13.46,4.3-16.21,4.94-.33-3.63.16-14.84.16-14.84s14.54-3.45,15.34-3.56c6.7-.86,9.66-7.33,9.33-10,0-2.4.19-17.35-.37-17.66-10.57,5.47-24.12,11.89-34.39,17.9-9.86,5.78-8.1,9.39-8.78,12.67-1,4.85-.13,28.87-4.13,45.43-6.71-6.51-12.58-12.14-17.95-17.34h0c8.77-6.29,11.17-13.88,11.43-25.48.43-19.85-19.25-17.09-20.26-17.52-1.16-.21-27.41-1.87-32-.33-6.41,2.16-11.83,8.65-10.26,15.27,3.48,14.65,15.79,60,16.12,61.14-.55,2.07-9.76,10.63-13.26,14,0-.69,1.12-7.14,1.4-8.22,2.23-16.41-6.84-27.7-7.4-27.34-5,3.23-11.89,8-16.79,11.35l-9.64,6.26c0,1.45.78,11.66,1,12.76,4.39-1.83,9-4.83,13.37-6.66,0,0,1.67,9.7-6.83,20.66-11.27,11.4-23.42,7.17-31.85,0-3.14-2.65-8.4-8.6-10.92-14.16-4.81-10.9-6.89-36.35,17.54-42,7.88-1.81,11.82,1.84,13.91,2.64a6.58,6.58,0,0,0,6.43-.9c4.49-3.47,12.3-10.55,15.49-13l-13.55-7.2c-2.1-.78-17.07-11.77-39.47,1.79-27.23,18.44-32.56,45.41-29.16,64.37,2.18,12.14,18.08,43.8,53.32,46,6.15.39,25.12-1.08,25.12-1.08,9-1.95,9.27-2.92,10.64-4.66,6.38-8.12,18.29-29.48,42.4-41.18,5.12-2.48,2.7-6.48,2.45-7.81-1.58-8.52-3.28-13.71-5.79-22-1-3.32,6.06-9.41,7.21-7.85,3.32,4.49,10.75,22.53,14,29.23.5,1,2.87,1.86,4.18,1.63,8.1-1.39,16.15-3.11,24.22-4.72a163,163,0,0,1,53.54,3.61c1.62-11.92,3.43-23.43,4.65-35,.42-4.05,2.07-7.36,5.76-6.86l6.63-.6c1.9,15.07,3.67,29.77,5.68,44.43.35,2.51,1,6.05,2.71,7.14,11.15,7,23.14,11.78,36.76,10.46,32.33.7,50.69-27.3,54.13-37,.25-.45,2.2-8.39,2.2-8.39a129.77,129.77,0,0,0,17.71-2.82,5.31,5.31,0,0,0,3.31-2.33c1.66-3.43,2.39-7,3.32-10.63,1.45-5.77.28-7.56-5.33-5.8-3.65,1.14-8.64,2.4-12.34,3.36-4.62,1.2-5.71-1.56-6.33-6-1.45-10.33,2.47-12.42,13.56-11,9.18,1.16,14.59-4.13,14.44-13-.1-5.37-1.94-6.92-6.88-4.65-3.64,1.68-7.06,3.91-10.78,5.37-5.07,2-7.53.33-8.31-5-1.06-7.26,1.91-10.93,10.79-13.36l8.7-.87,1.23-.25,2.22-.72c5.15-1.72,7.53-5.43,7.77-10.7l.81-8.83A6.38,6.38,0,0,1,525.17,262ZM262.65,330.77c-.16-.49-2.37-14.95-2.39-17.9.89-.2,17.61-.89,19.21,1.11C282.09,324.65,263.38,330.77,262.65,330.77Zm117.11-11.28c-.11.86-10.89-16.62,9.11-23.4C392.07,303.41,393.43,312.76,379.76,319.49Z" transform="translate(-61.65 -125.29)"/><path class="cls-4" d="M257.49,199.59" transform="translate(-61.65 -125.29)"/></g><g id="lightning"><path class="cls-2" d="M242.58,275.81,274,264l-23.7,43.85c28-27.26,58.87-58.38,86.92-85.64-16.6,7.36-36,18.58-52.55,26,23.3-27.32,46.61-57.31,69.92-84.62-12.24,2-25.48,5.83-37.72,7.81,9.28-15.61,19.55-30.42,28.83-46l-68.14,59.26c9.08.79,22.12-1.69,31.21-.9C308.76,183.65,261,248.12,242.58,275.81Z" transform="translate(-61.65 -125.29)"/></g><g id="A_DRIVE_IN_MUSICAL" data-name="A DRIVE IN MUSICAL"><text class="cls-5" transform="translate(191.91 298.51) rotate(-47.61)">A</text><text class="cls-5" transform="matrix(0.73, -0.68, 0.68, 0.73, 198.26, 291.76)"> </text><text class="cls-5" transform="matrix(0.78, -0.63, 0.63, 0.78, 200.87, 289.18)">D</text><text class="cls-5" transform="matrix(0.84, -0.55, 0.55, 0.84, 209.12, 282.62)">R</text><text class="cls-5" transform="translate(216.98 277.63) rotate(-29.13)">I</text><text class="cls-5" transform="matrix(0.9, -0.43, 0.43, 0.9, 220.86, 275.39)">V</text><text class="cls-5" transform="translate(229.14 271.53) rotate(-20.13)">E</text><text class="cls-5" transform="translate(237.01 268.71) rotate(-15.91)">-</text><text class="cls-5" transform="translate(243.21 266.99) rotate(-12.77)">I</text><text class="cls-5" transform="translate(247.55 265.91) rotate(-8.57)">N</text><text class="cls-5" transform="translate(257.88 264.49) rotate(-4.68)"> </text><text class="cls-5" transform="translate(261.55 264.05) rotate(-0.47)">M</text><text class="cls-5" transform="translate(273.57 264.02) rotate(5.13)">U</text><text class="cls-5" transform="matrix(0.99, 0.17, -0.17, 0.99, 284.08, 265.03)">S</text><text class="cls-5" transform="matrix(0.98, 0.21, -0.21, 0.98, 292.65, 266.54)">I</text><text class="cls-5" transform="translate(297.08 267.47) rotate(15.15)">C</text><text class="cls-5" transform="translate(305.83 269.86) rotate(18.57)">A</text><text class="cls-5" transform="matrix(0.93, 0.37, -0.37, 0.93, 314.69, 272.88)">L</text></g></svg>