
 <svg viewBox="0 0 240.02 75.88" id="carnav"><g id="Layer_2" data-name="Layer 2"><g id="Layer_1-2" data-name="Layer 1"><polygon className="hoodback" points="237.45 7.56 240.02 8.78 221.56 59.6 218.86 59.6 237.45 7.56"/><path className="hoodback" d="M10.13,21.75a5.24,5.24,0,0,1-.56,3.85,4.88,4.88,0,0,1-2.83,2,1.83,1.83,0,0,1-1.39-.06c-1-.58-.59-2.27-.86-6-.21-2.94-.66-4.41.21-5a1.67,1.67,0,0,1,1.16-.22C8,16.44,9.75,19.24,10.13,21.75Z"/><circle className="tireblack" cx="44.58" cy="56.04" r="13.68"/><circle className="outer-rim-grey" cx="44.58" cy="56.04" r="9.24"/><circle className="tireblack" cx="165.39" cy="56.41" r="13.68"/><circle className="outer-rim-grey" cx="165.39" cy="56.41" r="9.24"/><rect className="cls-5" x="12.79" y="21.22" width="57.58" height="12.67" transform="translate(-2.46 4.13) rotate(-5.52)"/><path className="cls-6" d="M2.45,40.45a74,74,0,0,1,4.84,8.48c1,2.07,1.87,4.07,2.6,6l39.32,5.6c2.64-11.36-1.8-22.9-10.64-28.55C27.51,24.86,11.16,28,2.45,40.45Z"/><path className="cls-6" d="M162.31,60.48l39.61-.88c1.28-14.53-10.56-25.58-21.5-24.77C170.08,35.59,160.35,46.94,162.31,60.48Z"/><path className="paleyellow" d="M23.76,24a5.72,5.72,0,0,1-.5,2.43,11,11,0,0,1-.41-5.4A5.75,5.75,0,0,1,23.76,24Z"/><path className="paleyellow" d="M168.69,8.22c-4.32-1-7.65.82-13,2.53a73.28,73.28,0,0,1-17.38,3.3c-.08,3-.15,6.09-.22,9.13l44.17.4q-2.4-4.59-4.79-9.2C175.65,12,172.76,9.12,168.69,8.22Z"/><path className="darkred" d="M29.63,26.81,53.06,29a17.47,17.47,0,0,1,13.78-3.82l0-8.94,5.44-.66Q82.23-.76,83.87,0c.4.19.43,1.18.08,3a2.31,2.31,0,0,1,1.9-.13c1.88.83,2.13,5.31.82,11.25l51.66-.06a8.54,8.54,0,0,0,2.31,4.18c1.88,1.8,4.29,2.15,12.23,2,7.73-.19,11.59-.29,14.72-1.19a35.28,35.28,0,0,0,9.9-4.62,45.57,45.57,0,0,1,6.6.66,42.59,42.59,0,0,1,4.73,1.1c3,.87,15-.61,48.63-8.58q-9.28,26-18.59,52H201.92a20.24,20.24,0,0,0-19-18.27C172.39,41,163,49.39,162.31,60.48H49.21c-3-14.16-15.37-22.16-25.25-20S10.13,54.17,9.89,54.88c-9-9.9-12-20-8.43-24.55.73-.93,2.19-2.2,5.28-2.75a15.59,15.59,0,0,0,.55-6.49,15.48,15.48,0,0,0-1.43-4.84,6.57,6.57,0,0,1,7.26.78c2.39,2.2,2.6,6.52-.11,9.45l10.25-.08"/><path className="darkred" d="M23.26,26.4a5.68,5.68,0,0,0-.41-5.4,5.94,5.94,0,0,1,4.36,1,6.17,6.17,0,0,1,2.42,4.84"/><path className="paleyellow" d="M76.52,19.14A215.84,215.84,0,0,0,100,21c6.25.16,12.14,0,17.61-.27-.15-.33-.31-.66-.46-1a31.52,31.52,0,0,1,7.35.42,32,32,0,0,1,5.28,1.4l.09,3-9.9-.82c.13.33.27.66.41,1A180.06,180.06,0,0,1,89.68,22C85,21.17,80.65,20.2,76.52,19.14Z"/><path className="paleyellow" d="M130.69,21.66l3.26,0a7.18,7.18,0,0,0-.78-.79A6.55,6.55,0,0,0,131,19.72c.58,0,1.62.1,2.91.24a62.35,62.35,0,0,1,6.67,1.1c2.36.51,8.42,1.13,24.79,1.57a38,38,0,0,1-9.66,3.14,38.24,38.24,0,0,1-14-.11,16.71,16.71,0,0,1,2.81,1.81,16.32,16.32,0,0,1,1.92,1.82c-1.78-.71-3.66-1.39-5.66-2a93.12,93.12,0,0,0-9.95-2.62C130.76,23.64,130.73,22.65,130.69,21.66Z"/><path className="paleyellow" d="M76.66,22.8c.79.12,2,.32,3.41.63,6.83,1.49,10.71,3.68,14.63,5.36,8.76,3.75,16.78,4.52,22.56,5.07a87.72,87.72,0,0,0,9.79.38l-2.7,2.25,6.38.72c0,1.37-.07,2.75-.11,4.12a24.62,24.62,0,0,0-5.55,0c-3.64.44-5.11,1.48-8.13,1.42a13.29,13.29,0,0,1-5-1.09,3.53,3.53,0,0,0,3-.88,2.91,2.91,0,0,0,.66-1.1,46.47,46.47,0,0,1-9.21-.94A39.14,39.14,0,0,1,93.62,34.1c-3.37-2-3.5-2.86-8.05-6A70.63,70.63,0,0,0,76.66,22.8Z"/><path className="paleyellow" d="M131.7,37.32a38.56,38.56,0,0,1,14.77,7.62A29.06,29.06,0,0,0,131.7,41.2Z"/><path className="paleyellow" d="M77,32.42a21.18,21.18,0,0,1,4.24,1.32,20.85,20.85,0,0,1,3.85,2.2,1.11,1.11,0,0,0-.77.5,1.08,1.08,0,0,0,.16,1.26,11.76,11.76,0,0,0,1.27.88,13.41,13.41,0,0,0,4.07,1.65,23.15,23.15,0,0,1-4.51-.66,24,24,0,0,1-5.72-2.2l1.54-1.1a7.92,7.92,0,0,0-1.05-1.65A7.75,7.75,0,0,0,77,32.42Z"/><path className="paleyellow" d="M164.4,34.27a7.54,7.54,0,0,0,2-1.74,7.44,7.44,0,0,0,.83-1.29l1,.39a4.67,4.67,0,0,1,1.13-1.3,5,5,0,0,1,2.83-1,10,10,0,0,0-4,3.59l-.8-.57a4.22,4.22,0,0,1-.82,1A4.49,4.49,0,0,1,164.4,34.27Z"/><path className="paleyellow" d="M176.5,25.16a34,34,0,0,1,23-6.52l.82-1.49a78.33,78.33,0,0,0,15.35-.9,79.13,79.13,0,0,0,15.56-4.12,32.71,32.71,0,0,1-7.73,6.4,32.67,32.67,0,0,1-9.6,3.83,18.45,18.45,0,0,0,2.58.27,18.56,18.56,0,0,0,2.89-.11,46.52,46.52,0,0,1-5.18,1c-8,1.07-13.5-.27-17.82-.75A46.12,46.12,0,0,0,176.5,25.16Z"/><path className="paleyellow" d="M184.2,26.7a28.44,28.44,0,0,1,8.2.33c4.88.93,6.74,2.65,11.17,3.41a23.94,23.94,0,0,0,9.49-.35,4.16,4.16,0,0,0-.86-.94,4.1,4.1,0,0,0-1.57-.77,54.53,54.53,0,0,0,6.85,1.29,54.78,54.78,0,0,0,8.09.39,19,19,0,0,1-3,1.76,18.68,18.68,0,0,1-5.45,1.54,8.58,8.58,0,0,0,1.32.88c1.12.6,1.76.63,1.76.77,0,.39-5.3,1.41-11.17.33-3.74-.69-5.75-1.87-9.21-3.41A88.07,88.07,0,0,0,184.2,26.7Z"/><path className="paleyellow" d="M180.33,32.67c5.58-1.33,9.41-.55,11.88.41,3.15,1.24,4.26,2.85,7.84,4.54A25.44,25.44,0,0,0,210.61,40l-2.39.66a18.55,18.55,0,0,1,7.92,9.66,13.73,13.73,0,0,0-5.2-3,13.47,13.47,0,0,0-3.67-.62c-.1-.5-.2-1-.29-1.49a19.16,19.16,0,0,1-8.17-3.09c-2.89-2-3.47-4-5.78-5.61A23.41,23.41,0,0,0,180.33,32.67Z"/><path className="paleyellow" d="M30.29,30.39c2-.28,13.84-1.72,23.65,6.54a29.67,29.67,0,0,1,9.24,14.36A33.63,33.63,0,0,0,42.39,37l3.25-.6a31.6,31.6,0,0,0-3.31-2.15A32.55,32.55,0,0,0,30.29,30.39Z"/>

 <circle className="tireblack" cx="27.67" cy="60.48" r="15.4"/><circle className="outer-rim-grey" cx="27.67" cy="60.48" r="9.24"/><circle className="rim-ring" cx="27.67" cy="60.48" r="8.09"/><circle className="outer-rim-grey" cx="27.67" cy="60.48" r="6.93"/><circle className="hubcap" cx="27.67" cy="60.48" r="4.07"/>
<svg id="wheel">

 <circle className="tireblack" cx="181.81" cy="60.48" r="15.4"/><circle className="outer-rim-grey" cx="181.81" cy="60.48" r="9.24"/><circle className="rim-ring" cx="181.81" cy="60.48" r="8.09"/><circle className="outer-rim-grey" cx="181.81" cy="60.48" r="6.93"/><circle className="hubcap" cx="181.81" cy="60.48" r="4.07"/>
 </svg>
 
 <path className="paleyellow" d="M81.83,4.42l-6.32,9.69H84c2.19-3.15,2.25-6.66.56-8.42A4.5,4.5,0,0,0,81.83,4.42Z"/><path className="outer-rim-grey" d="M171,54.13c1.19-3.8,5.45-5,5.45-5S172.05,50.06,171,54.13Z"/><path className="outer-rim-grey" d="M193.18,64.4c-.35,4-4.26,6-4.26,6S193,68.6,193.18,64.4Z"/><path className="outer-rim-grey" d="M37.63,68.32c-1.69,3.61-6.06,4.19-6.06,4.19S36.06,72.22,37.63,68.32Z"/><path className="outer-rim-grey" d="M17.8,53.55a7.23,7.23,0,0,1,4.63-4.32S19.26,49.61,17.8,53.55Z"/></g></g></svg>

